<svg width="24" height="24" viewBox="0 0 24 24" fill="none" xmlns="http://www.w3.org/2000/svg">
<path d="M17.1336 10.0536L17.1336 10.0536L17.1395 10.0475C17.6136 9.55706 17.6221 8.77495 17.1336 8.28645C16.6483 7.80118 15.8517 7.80118 15.3664 8.28645L10.58 13.0729L8.63355 11.1264C8.14829 10.6412 7.35171 10.6412 6.86645 11.1264C6.38118 11.6117 6.38118 12.4083 6.86645 12.8936L9.69645 15.7236C9.92914 15.9563 10.2459 16.09 10.58 16.09C10.9141 16.09 11.2309 15.9563 11.4636 15.7236L17.1336 10.0536ZM2.5 12C2.5 6.76614 6.76614 2.5 12 2.5C17.2339 2.5 21.5 6.76614 21.5 12C21.5 17.2339 17.2339 21.5 12 21.5C6.76614 21.5 2.5 17.2339 2.5 12Z" fill="#793EF5" stroke="#793EF5"/>
</svg>
